# Blender v2.80 (sub 75) OBJ File: ''
# www.blender.org
mtllib LightBall.mtl
o LightBall
v 0.000000 0.353553 -0.353553
v 0.000000 0.191342 -0.461940
v 0.000000 -0.191342 -0.461940
v 0.000000 -0.461940 -0.191342
v 0.073223 0.461940 -0.176777
v 0.135299 0.353553 -0.326641
v 0.176777 0.191342 -0.426777
v 0.191342 -0.000000 -0.461940
v 0.176777 -0.191342 -0.426777
v 0.135299 -0.353553 -0.326641
v 0.073223 -0.461940 -0.176777
v 0.135299 0.461940 -0.135299
v 0.250000 0.353553 -0.250000
v 0.326641 0.191342 -0.326641
v 0.353553 -0.000000 -0.353553
v 0.326641 -0.191342 -0.326641
v 0.250000 -0.353553 -0.250000
v 0.135299 -0.461940 -0.135299
v 0.176777 0.461940 -0.073223
v 0.326641 0.353553 -0.135299
v 0.426777 0.191342 -0.176777
v 0.461940 -0.000000 -0.191342
v 0.426777 -0.191342 -0.176777
v 0.326641 -0.353553 -0.135299
v 0.176777 -0.461940 -0.073223
v 0.191342 0.461940 -0.000000
v 0.353553 0.353553 -0.000000
v 0.461940 0.191342 -0.000000
v 0.500000 -0.000000 -0.000000
v 0.461940 -0.191342 -0.000000
v 0.353553 -0.353553 -0.000000
v 0.191342 -0.461940 -0.000000
v 0.176777 0.461940 0.073223
v 0.326641 0.353553 0.135299
v 0.426777 0.191342 0.176777
v 0.461940 -0.000000 0.191342
v 0.426777 -0.191342 0.176777
v 0.326641 -0.353553 0.135299
v 0.176777 -0.461940 0.073223
v 0.135299 0.461940 0.135299
v 0.250000 0.353553 0.250000
v 0.326641 0.191342 0.326641
v 0.353553 -0.000000 0.353553
v 0.326641 -0.191342 0.326641
v 0.250000 -0.353553 0.250000
v 0.135299 -0.461940 0.135299
v 0.073223 0.461940 0.176777
v 0.135299 0.353553 0.326641
v 0.176777 0.191342 0.426777
v 0.191342 -0.000000 0.461940
v 0.176777 -0.191342 0.426777
v 0.135299 -0.353553 0.326641
v 0.073223 -0.461940 0.176777
v -0.000000 0.461940 0.191342
v -0.000000 0.353553 0.353553
v -0.000000 0.191342 0.461940
v -0.000000 -0.000000 0.500000
v -0.000000 -0.191342 0.461940
v -0.000000 -0.353553 0.353553
v -0.000000 -0.461940 0.191342
v -0.073223 0.461940 0.176777
v -0.135299 0.353553 0.326640
v -0.176777 0.191342 0.426776
v -0.191342 -0.000000 0.461939
v -0.176777 -0.191342 0.426776
v -0.135299 -0.353553 0.326640
v -0.073223 -0.461940 0.176777
v -0.135299 0.461940 0.135299
v -0.250000 0.353553 0.250000
v -0.326641 0.191342 0.326640
v -0.353553 -0.000000 0.353553
v -0.326641 -0.191342 0.326640
v -0.250000 -0.353553 0.250000
v -0.135299 -0.461940 0.135299
v -0.176777 0.461940 0.073223
v -0.326641 0.353553 0.135299
v -0.426777 0.191342 0.176776
v -0.461940 -0.000000 0.191341
v -0.426777 -0.191342 0.176776
v -0.326641 -0.353553 0.135299
v -0.176777 -0.461940 0.073223
v -0.191342 0.461940 -0.000000
v -0.353553 0.353553 -0.000000
v -0.461940 0.191342 -0.000000
v -0.500000 -0.000000 -0.000000
v -0.461940 -0.191342 -0.000000
v -0.353553 -0.353553 -0.000000
v -0.191342 -0.461940 -0.000000
v -0.176777 0.461940 -0.073223
v -0.326641 0.353553 -0.135299
v -0.426776 0.191342 -0.176777
v -0.461939 -0.000000 -0.191342
v -0.426776 -0.191342 -0.176777
v -0.326641 -0.353553 -0.135299
v -0.176777 -0.461940 -0.073223
v -0.135299 0.461940 -0.135299
v -0.250000 0.353553 -0.250000
v -0.326640 0.191342 -0.326641
v -0.353553 -0.000000 -0.353554
v -0.326640 -0.191342 -0.326641
v -0.250000 -0.353553 -0.250000
v -0.135299 -0.461940 -0.135299
v -0.073223 0.461940 -0.176777
v -0.135299 0.353553 -0.326641
v -0.176776 0.191342 -0.426777
v -0.191341 -0.000000 -0.461940
v -0.176776 -0.191342 -0.426777
v -0.135299 -0.353553 -0.326641
v -0.073223 -0.461940 -0.176777
v -0.000000 0.500000 -0.000000
v 0.000000 0.461940 -0.191342
v 0.000000 -0.000000 -0.500000
v 0.000000 -0.353553 -0.353553
v 0.000000 -0.500000 -0.000000
vt 0.750000 0.750000
vt 0.687500 0.875000
vt 0.750000 0.875000
vt 0.687500 0.125000
vt 0.750000 0.250000
vt 0.750000 0.125000
vt 0.687500 0.375000
vt 0.750000 0.500000
vt 0.750000 0.375000
vt 0.687500 0.625000
vt 0.750000 0.625000
vt 0.718750 1.000000
vt 0.718750 0.000000
vt 0.625000 0.375000
vt 0.687500 0.500000
vt 0.625000 0.750000
vt 0.687500 0.750000
vt 0.625000 0.875000
vt 0.656250 1.000000
vt 0.656250 0.000000
vt 0.625000 0.125000
vt 0.625000 0.250000
vt 0.687500 0.250000
vt 0.625000 0.500000
vt 0.593750 0.000000
vt 0.562500 0.125000
vt 0.562500 0.250000
vt 0.562500 0.500000
vt 0.625000 0.625000
vt 0.562500 0.875000
vt 0.562500 0.375000
vt 0.562500 0.625000
vt 0.593750 1.000000
vt 0.500000 0.625000
vt 0.562500 0.750000
vt 0.500000 0.875000
vt 0.500000 0.250000
vt 0.500000 0.375000
vt 0.531250 1.000000
vt 0.531250 0.000000
vt 0.500000 0.125000
vt 0.437500 0.125000
vt 0.437500 0.375000
vt 0.500000 0.500000
vt 0.437500 0.750000
vt 0.500000 0.750000
vt 0.437500 0.875000
vt 0.468750 1.000000
vt 0.468750 0.000000
vt 0.437500 0.250000
vt 0.437500 0.500000
vt 0.375000 0.625000
vt 0.437500 0.625000
vt 0.375000 0.875000
vt 0.406250 1.000000
vt 0.406250 0.000000
vt 0.375000 0.125000
vt 0.375000 0.250000
vt 0.375000 0.500000
vt 0.375000 0.750000
vt 0.375000 0.375000
vt 0.343750 0.000000
vt 0.312500 0.125000
vt 0.312500 0.250000
vt 0.312500 0.625000
vt 0.312500 0.875000
vt 0.312500 0.375000
vt 0.343750 1.000000
vt 0.250000 0.750000
vt 0.312500 0.750000
vt 0.250000 0.125000
vt 0.250000 0.375000
vt 0.312500 0.500000
vt 0.250000 0.625000
vt 0.250000 0.875000
vt 0.281250 1.000000
vt 0.281250 0.000000
vt 0.250000 0.250000
vt 0.250000 0.500000
vt 0.187500 0.250000
vt 0.187500 0.375000
vt 0.187500 0.625000
vt 0.187500 0.875000
vt 0.218750 1.000000
vt 0.218750 0.000000
vt 0.187500 0.125000
vt 0.187500 0.500000
vt 0.125000 0.875000
vt 0.156250 1.000000
vt 0.156250 0.000000
vt 0.125000 0.125000
vt 0.125000 0.250000
vt 0.125000 0.625000
vt 0.125000 0.750000
vt 0.187500 0.750000
vt 0.125000 0.375000
vt 0.062500 0.250000
vt 0.062500 0.500000
vt 0.125000 0.500000
vt 0.062500 0.875000
vt 0.062500 0.125000
vt 0.062500 0.375000
vt 0.062500 0.625000
vt 0.093750 1.000000
vt 0.093750 0.000000
vt 0.000000 0.125000
vt 0.000000 0.375000
vt 0.000000 0.625000
vt 0.062500 0.750000
vt 0.000000 0.875000
vt 0.031250 1.000000
vt 0.031250 0.000000
vt 0.937500 0.375000
vt 1.000000 0.500000
vt 1.000000 0.375000
vt 0.937500 0.625000
vt 1.000000 0.750000
vt 1.000000 0.625000
vt 1.000000 0.875000
vt 0.937500 0.875000
vt 0.968750 1.000000
vt 0.968750 0.000000
vt 0.937500 0.125000
vt 1.000000 0.125000
vt 1.000000 0.250000
vt 0.906250 0.000000
vt 0.875000 0.125000
vt 0.937500 0.250000
vt 0.875000 0.375000
vt 0.937500 0.500000
vt 0.875000 0.625000
vt 0.937500 0.750000
vt 0.875000 0.875000
vt 0.906250 1.000000
vt 0.812500 0.500000
vt 0.875000 0.500000
vt 0.875000 0.750000
vt 0.812500 0.875000
vt 0.812500 0.125000
vt 0.875000 0.250000
vt 0.812500 0.375000
vt 0.812500 0.625000
vt 0.843750 1.000000
vt 0.843750 0.000000
vt 0.812500 0.250000
vt 0.812500 0.750000
vt 0.781250 1.000000
vt 0.781250 0.000000
vt 0.000000 0.250000
vt 0.000000 0.500000
vt 0.000000 0.750000
vn -0.1098 -0.8264 0.5522
vn -0.1098 0.8264 0.5522
vn -0.1915 0.1915 0.9626
vn -0.1632 -0.5481 0.8203
vn -0.0388 -0.9800 0.1949
vn -0.0388 0.9800 0.1949
vn -0.1632 0.5481 0.8203
vn -0.1915 -0.1915 0.9626
vn -0.5453 0.1915 0.8161
vn -0.4647 -0.5481 0.6954
vn -0.1104 -0.9800 0.1653
vn -0.1104 0.9800 0.1653
vn -0.4647 0.5481 0.6954
vn -0.5453 -0.1915 0.8161
vn -0.3128 -0.8264 0.4681
vn -0.3128 0.8264 0.4681
vn -0.1653 0.9800 0.1104
vn -0.6954 0.5481 0.4647
vn -0.8161 -0.1915 0.5453
vn -0.4681 -0.8264 0.3128
vn -0.4681 0.8264 0.3128
vn -0.8161 0.1915 0.5453
vn -0.6954 -0.5481 0.4647
vn -0.1653 -0.9800 0.1104
vn -0.9626 -0.1915 0.1915
vn -0.5522 -0.8264 0.1098
vn -0.5522 0.8264 0.1098
vn -0.9626 0.1915 0.1915
vn -0.8203 -0.5481 0.1632
vn -0.1949 -0.9800 0.0388
vn -0.1949 0.9800 0.0388
vn -0.8203 0.5481 0.1632
vn -0.5522 0.8264 -0.1098
vn -0.9626 0.1915 -0.1915
vn -0.8203 -0.5481 -0.1632
vn -0.1949 -0.9800 -0.0388
vn -0.1949 0.9800 -0.0388
vn -0.8203 0.5481 -0.1632
vn -0.9626 -0.1915 -0.1915
vn -0.5522 -0.8264 -0.1098
vn -0.6954 -0.5481 -0.4647
vn -0.1653 -0.9800 -0.1104
vn -0.1653 0.9800 -0.1104
vn -0.6954 0.5481 -0.4647
vn -0.8161 -0.1915 -0.5453
vn -0.4681 -0.8264 -0.3128
vn -0.4681 0.8264 -0.3128
vn -0.8161 0.1915 -0.5453
vn -0.1104 0.9800 -0.1653
vn -0.4647 0.5481 -0.6954
vn -0.5453 -0.1915 -0.8161
vn -0.3128 -0.8264 -0.4681
vn -0.3128 0.8264 -0.4681
vn -0.5453 0.1915 -0.8161
vn -0.4647 -0.5481 -0.6954
vn -0.1104 -0.9800 -0.1653
vn -0.1098 -0.8264 -0.5522
vn -0.1098 0.8264 -0.5522
vn -0.1915 0.1915 -0.9626
vn -0.1632 -0.5481 -0.8203
vn -0.0388 -0.9800 -0.1949
vn -0.0388 0.9800 -0.1949
vn -0.1632 0.5481 -0.8203
vn -0.1915 -0.1915 -0.9626
vn 0.1098 0.8264 -0.5522
vn 0.1915 0.1915 -0.9626
vn 0.1632 -0.5481 -0.8203
vn 0.0388 -0.9800 -0.1949
vn 0.0388 0.9800 -0.1949
vn 0.1632 0.5481 -0.8203
vn 0.1915 -0.1915 -0.9626
vn 0.1098 -0.8264 -0.5522
vn 0.1104 -0.9800 -0.1653
vn 0.1104 0.9800 -0.1653
vn 0.4647 0.5481 -0.6954
vn 0.5453 -0.1915 -0.8161
vn 0.3128 -0.8264 -0.4681
vn 0.3128 0.8264 -0.4681
vn 0.5453 0.1915 -0.8161
vn 0.4647 -0.5481 -0.6954
vn 0.6954 0.5481 -0.4647
vn 0.8161 -0.1915 -0.5453
vn 0.4681 -0.8264 -0.3128
vn 0.4681 0.8264 -0.3128
vn 0.8161 0.1915 -0.5453
vn 0.6954 -0.5481 -0.4647
vn 0.1653 -0.9800 -0.1104
vn 0.1653 0.9800 -0.1104
vn 0.5522 0.8264 -0.1098
vn 0.9626 0.1915 -0.1915
vn 0.8203 -0.5481 -0.1632
vn 0.1949 -0.9800 -0.0388
vn 0.1949 0.9800 -0.0388
vn 0.8203 0.5481 -0.1632
vn 0.9626 -0.1915 -0.1915
vn 0.5522 -0.8264 -0.1098
vn 0.9626 0.1915 0.1915
vn 0.8203 -0.5481 0.1632
vn 0.1949 -0.9800 0.0388
vn 0.1949 0.9800 0.0388
vn 0.8203 0.5481 0.1632
vn 0.9626 -0.1915 0.1915
vn 0.5522 -0.8264 0.1098
vn 0.5522 0.8264 0.1098
vn 0.1653 0.9800 0.1104
vn 0.6954 0.5481 0.4647
vn 0.8161 -0.1915 0.5453
vn 0.4681 -0.8264 0.3128
vn 0.4681 0.8264 0.3128
vn 0.8161 0.1915 0.5453
vn 0.6954 -0.5481 0.4647
vn 0.1653 -0.9800 0.1104
vn 0.5453 -0.1915 0.8161
vn 0.3128 -0.8264 0.4681
vn 0.3128 0.8264 0.4681
vn 0.5453 0.1915 0.8161
vn 0.4647 -0.5481 0.6954
vn 0.1104 -0.9800 0.1653
vn 0.1104 0.9800 0.1653
vn 0.4647 0.5481 0.6954
vn 0.1098 0.8264 0.5522
vn 0.1915 0.1915 0.9626
vn 0.1632 -0.5481 0.8203
vn 0.0388 -0.9800 0.1949
vn 0.0388 0.9800 0.1949
vn 0.1632 0.5481 0.8203
vn 0.1915 -0.1915 0.9626
vn 0.1098 -0.8264 0.5522
usemtl LightBall
s off
f 1/1/1 5/2/1 111/3/1
f 11/4/2 113/5/2 4/6/2
f 9/7/3 112/8/3 3/9/3
f 7/10/4 1/1/4 2/11/4
f 111/3/5 5/2/5 110/12/5
f 114/13/6 11/4/6 4/6/6
f 113/5/7 9/7/7 3/9/7
f 112/8/8 7/10/8 2/11/8
f 16/14/9 8/15/9 9/7/9
f 7/10/10 13/16/10 6/17/10
f 5/2/11 12/18/11 110/19/11
f 114/20/12 18/21/12 11/4/12
f 17/22/13 9/7/13 10/23/13
f 15/24/14 7/10/14 8/15/14
f 13/16/15 5/2/15 6/17/15
f 18/21/16 10/23/16 11/4/16
f 114/25/17 25/26/17 18/21/17
f 24/27/18 16/14/18 17/22/18
f 22/28/19 14/29/19 15/24/19
f 13/16/20 19/30/20 12/18/20
f 18/21/21 24/27/21 17/22/21
f 23/31/22 15/24/22 16/14/22
f 21/32/23 13/16/23 14/29/23
f 12/18/24 19/30/24 110/33/24
f 22/28/25 28/34/25 21/32/25
f 20/35/26 26/36/26 19/30/26
f 25/26/27 31/37/27 24/27/27
f 30/38/28 22/28/28 23/31/28
f 28/34/29 20/35/29 21/32/29
f 19/30/30 26/36/30 110/39/30
f 114/40/31 32/41/31 25/26/31
f 31/37/32 23/31/32 24/27/32
f 39/42/33 31/37/33 32/41/33
f 37/43/34 29/44/34 30/38/34
f 28/34/35 34/45/35 27/46/35
f 26/36/36 33/47/36 110/48/36
f 114/49/37 39/42/37 32/41/37
f 38/50/38 30/38/38 31/37/38
f 36/51/39 28/34/39 29/44/39
f 27/46/40 33/47/40 26/36/40
f 42/52/41 34/45/41 35/53/41
f 33/47/42 40/54/42 110/55/42
f 114/56/43 46/57/43 39/42/43
f 45/58/44 37/43/44 38/50/44
f 43/59/45 35/53/45 36/51/45
f 41/60/46 33/47/46 34/45/46
f 39/42/47 45/58/47 38/50/47
f 44/61/48 36/51/48 37/43/48
f 114/62/49 53/63/49 46/57/49
f 52/64/50 44/61/50 45/58/50
f 43/59/51 49/65/51 42/52/51
f 41/60/52 47/66/52 40/54/52
f 53/63/53 45/58/53 46/57/53
f 51/67/54 43/59/54 44/61/54
f 49/65/55 41/60/55 42/52/55
f 40/54/56 47/66/56 110/68/56
f 55/69/57 47/66/57 48/70/57
f 60/71/58 52/64/58 53/63/58
f 58/72/59 50/73/59 51/67/59
f 56/74/60 48/70/60 49/65/60
f 47/66/61 54/75/61 110/76/61
f 114/77/62 60/71/62 53/63/62
f 59/78/63 51/67/63 52/64/63
f 57/79/64 49/65/64 50/73/64
f 60/71/65 66/80/65 59/78/65
f 65/81/66 57/79/66 58/72/66
f 63/82/67 55/69/67 56/74/67
f 54/75/68 61/83/68 110/84/68
f 114/85/69 67/86/69 60/71/69
f 66/80/70 58/72/70 59/78/70
f 64/87/71 56/74/71 57/79/71
f 55/69/72 61/83/72 54/75/72
f 61/83/73 68/88/73 110/89/73
f 114/90/74 74/91/74 67/86/74
f 73/92/75 65/81/75 66/80/75
f 64/87/76 70/93/76 63/82/76
f 69/94/77 61/83/77 62/95/77
f 74/91/78 66/80/78 67/86/78
f 72/96/79 64/87/79 65/81/79
f 70/93/80 62/95/80 63/82/80
f 80/97/81 72/96/81 73/92/81
f 78/98/82 70/93/82 71/99/82
f 69/94/83 75/100/83 68/88/83
f 81/101/84 73/92/84 74/91/84
f 79/102/85 71/99/85 72/96/85
f 77/103/86 69/94/86 70/93/86
f 68/88/87 75/100/87 110/104/87
f 114/105/88 81/101/88 74/91/88
f 88/106/89 80/97/89 81/101/89
f 86/107/90 78/98/90 79/102/90
f 84/108/91 76/109/91 77/103/91
f 75/100/92 82/110/92 110/111/92
f 114/112/93 88/106/93 81/101/93
f 80/97/94 86/107/94 79/102/94
f 78/98/95 84/108/95 77/103/95
f 76/109/96 82/110/96 75/100/96
f 93/113/97 85/114/97 86/115/97
f 91/116/98 83/117/98 84/118/98
f 82/119/99 89/120/99 110/121/99
f 114/122/100 95/123/100 88/124/100
f 87/125/101 93/113/101 86/115/101
f 85/114/102 91/116/102 84/118/102
f 83/117/103 89/120/103 82/119/103
f 95/123/104 87/125/104 88/124/104
f 114/126/105 102/127/105 95/123/105
f 94/128/106 100/129/106 93/113/106
f 92/130/107 98/131/107 91/116/107
f 90/132/108 96/133/108 89/120/108
f 102/127/109 94/128/109 95/123/109
f 100/129/110 92/130/110 93/113/110
f 98/131/111 90/132/111 91/116/111
f 89/120/112 96/133/112 110/134/112
f 106/135/113 98/131/113 99/136/113
f 97/137/114 103/138/114 96/133/114
f 109/139/115 101/140/115 102/127/115
f 107/141/116 99/136/116 100/129/116
f 105/142/117 97/137/117 98/131/117
f 96/133/118 103/138/118 110/143/118
f 114/144/119 109/139/119 102/127/119
f 101/140/120 107/141/120 100/129/120
f 4/6/121 108/145/121 109/139/121
f 3/9/122 106/135/122 107/141/122
f 105/142/123 1/1/123 104/146/123
f 103/138/124 111/3/124 110/147/124
f 114/148/125 4/6/125 109/139/125
f 108/145/126 3/9/126 107/141/126
f 106/135/127 2/11/127 105/142/127
f 1/1/128 103/138/128 104/146/128
f 1/1/1 6/17/1 5/2/1
f 11/4/2 10/23/2 113/5/2
f 9/7/3 8/15/3 112/8/3
f 7/10/4 6/17/4 1/1/4
f 113/5/7 10/23/7 9/7/7
f 112/8/8 8/15/8 7/10/8
f 16/14/9 15/24/9 8/15/9
f 7/10/10 14/29/10 13/16/10
f 17/22/13 16/14/13 9/7/13
f 15/24/14 14/29/14 7/10/14
f 13/16/15 12/18/15 5/2/15
f 18/21/16 17/22/16 10/23/16
f 24/27/18 23/31/18 16/14/18
f 22/28/19 21/32/19 14/29/19
f 13/16/20 20/35/20 19/30/20
f 18/21/21 25/26/21 24/27/21
f 23/31/22 22/28/22 15/24/22
f 21/32/23 20/35/23 13/16/23
f 22/28/25 29/44/25 28/34/25
f 20/35/26 27/46/26 26/36/26
f 25/26/27 32/41/27 31/37/27
f 30/38/28 29/44/28 22/28/28
f 28/34/29 27/46/29 20/35/29
f 31/37/32 30/38/32 23/31/32
f 39/42/33 38/50/33 31/37/33
f 37/43/34 36/51/34 29/44/34
f 28/34/35 35/53/35 34/45/35
f 38/50/38 37/43/38 30/38/38
f 36/51/39 35/53/39 28/34/39
f 27/46/40 34/45/40 33/47/40
f 42/52/41 41/60/41 34/45/41
f 45/58/44 44/61/44 37/43/44
f 43/59/45 42/52/45 35/53/45
f 41/60/46 40/54/46 33/47/46
f 39/42/47 46/57/47 45/58/47
f 44/61/48 43/59/48 36/51/48
f 52/64/50 51/67/50 44/61/50
f 43/59/51 50/73/51 49/65/51
f 41/60/52 48/70/52 47/66/52
f 53/63/53 52/64/53 45/58/53
f 51/67/54 50/73/54 43/59/54
f 49/65/55 48/70/55 41/60/55
f 55/69/57 54/75/57 47/66/57
f 60/71/58 59/78/58 52/64/58
f 58/72/59 57/79/59 50/73/59
f 56/74/60 55/69/60 48/70/60
f 59/78/63 58/72/63 51/67/63
f 57/79/64 56/74/64 49/65/64
f 60/71/65 67/86/65 66/80/65
f 65/81/66 64/87/66 57/79/66
f 63/82/67 62/95/67 55/69/67
f 66/80/70 65/81/70 58/72/70
f 64/87/71 63/82/71 56/74/71
f 55/69/72 62/95/72 61/83/72
f 73/92/75 72/96/75 65/81/75
f 64/87/76 71/99/76 70/93/76
f 69/94/77 68/88/77 61/83/77
f 74/91/78 73/92/78 66/80/78
f 72/96/79 71/99/79 64/87/79
f 70/93/80 69/94/80 62/95/80
f 80/97/81 79/102/81 72/96/81
f 78/98/82 77/103/82 70/93/82
f 69/94/83 76/109/83 75/100/83
f 81/101/84 80/97/84 73/92/84
f 79/102/85 78/98/85 71/99/85
f 77/103/86 76/109/86 69/94/86
f 88/106/89 87/149/89 80/97/89
f 86/107/90 85/150/90 78/98/90
f 84/108/91 83/151/91 76/109/91
f 80/97/94 87/149/94 86/107/94
f 78/98/95 85/150/95 84/108/95
f 76/109/96 83/151/96 82/110/96
f 93/113/97 92/130/97 85/114/97
f 91/116/98 90/132/98 83/117/98
f 87/125/101 94/128/101 93/113/101
f 85/114/102 92/130/102 91/116/102
f 83/117/103 90/132/103 89/120/103
f 95/123/104 94/128/104 87/125/104
f 94/128/106 101/140/106 100/129/106
f 92/130/107 99/136/107 98/131/107
f 90/132/108 97/137/108 96/133/108
f 102/127/109 101/140/109 94/128/109
f 100/129/110 99/136/110 92/130/110
f 98/131/111 97/137/111 90/132/111
f 106/135/113 105/142/113 98/131/113
f 97/137/114 104/146/114 103/138/114
f 109/139/115 108/145/115 101/140/115
f 107/141/116 106/135/116 99/136/116
f 105/142/117 104/146/117 97/137/117
f 101/140/120 108/145/120 107/141/120
f 4/6/121 113/5/121 108/145/121
f 3/9/122 112/8/122 106/135/122
f 105/142/123 2/11/123 1/1/123
f 108/145/126 113/5/126 3/9/126
f 106/135/127 112/8/127 2/11/127
f 1/1/128 111/3/128 103/138/128
